<mxfile host="app.diagrams.net" agent="Mozilla/5.0 (Windows NT 10.0; Win64; x64) AppleWebKit/537.36 (KHTML, like Gecko) Chrome/126.0.0.0 Safari/537.36 Edg/126.0.0.0" version="24.7.4">
  <diagram name="Página-1" id="Ll56RGRvAgIfv66jcdIt">
    <mxGraphModel dx="2423" dy="2307" grid="1" gridSize="10" guides="1" tooltips="1" connect="1" arrows="1" fold="1" page="1" pageScale="1" pageWidth="827" pageHeight="1169" math="0" shadow="0">
      <root>
        <mxCell id="0" />
        <mxCell id="1" parent="0" />
        <mxCell id="Sxat7Bz0VVS-SImOSO3t-1" value="&lt;b&gt;&lt;font style=&quot;font-size: 20px;&quot;&gt;Médico&lt;/font&gt;&lt;/b&gt;" style="rounded=0;whiteSpace=wrap;html=1;" vertex="1" parent="1">
          <mxGeometry x="80" y="160" width="120" height="80" as="geometry" />
        </mxCell>
        <mxCell id="Sxat7Bz0VVS-SImOSO3t-2" value="&lt;b&gt;&lt;font style=&quot;font-size: 20px;&quot;&gt;Consulta&lt;/font&gt;&lt;/b&gt;" style="rounded=0;whiteSpace=wrap;html=1;" vertex="1" parent="1">
          <mxGeometry x="320" y="360" width="120" height="80" as="geometry" />
        </mxCell>
        <mxCell id="Sxat7Bz0VVS-SImOSO3t-3" value="&lt;b&gt;&lt;font style=&quot;font-size: 20px;&quot;&gt;Paciente&lt;/font&gt;&lt;/b&gt;" style="rounded=0;whiteSpace=wrap;html=1;" vertex="1" parent="1">
          <mxGeometry x="560" y="160" width="120" height="80" as="geometry" />
        </mxCell>
        <mxCell id="Sxat7Bz0VVS-SImOSO3t-4" value="&lt;b&gt;&lt;font style=&quot;font-size: 20px;&quot;&gt;Convênio&lt;/font&gt;&lt;/b&gt;" style="rounded=0;whiteSpace=wrap;html=1;" vertex="1" parent="1">
          <mxGeometry x="320" y="-40" width="120" height="80" as="geometry" />
        </mxCell>
        <mxCell id="Sxat7Bz0VVS-SImOSO3t-5" value="Marcar" style="rhombus;whiteSpace=wrap;html=1;" vertex="1" parent="1">
          <mxGeometry x="580" y="360" width="80" height="80" as="geometry" />
        </mxCell>
        <mxCell id="Sxat7Bz0VVS-SImOSO3t-8" value="&lt;span style=&quot;font-size: 8px;&quot;&gt;&lt;b&gt;Especialidade&lt;/b&gt;&lt;/span&gt;" style="ellipse;whiteSpace=wrap;html=1;verticalAlign=middle;horizontal=1;" vertex="1" parent="1">
          <mxGeometry x="-60" y="60" width="80" height="40" as="geometry" />
        </mxCell>
        <mxCell id="Sxat7Bz0VVS-SImOSO3t-9" value="&lt;span style=&quot;font-size: 8px;&quot;&gt;&lt;b&gt;Nome&lt;/b&gt;&lt;/span&gt;" style="ellipse;whiteSpace=wrap;html=1;verticalAlign=middle;horizontal=1;" vertex="1" parent="1">
          <mxGeometry x="-60" y="295" width="80" height="40" as="geometry" />
        </mxCell>
        <mxCell id="Sxat7Bz0VVS-SImOSO3t-11" value="&lt;span style=&quot;font-size: 8px;&quot;&gt;&lt;b&gt;E-mail&lt;/b&gt;&lt;/span&gt;" style="ellipse;whiteSpace=wrap;html=1;verticalAlign=middle;horizontal=1;" vertex="1" parent="1">
          <mxGeometry x="-60" y="240" width="80" height="35" as="geometry" />
        </mxCell>
        <mxCell id="Sxat7Bz0VVS-SImOSO3t-12" value="&lt;span style=&quot;font-size: 8px;&quot;&gt;&lt;b&gt;Endereço&lt;/b&gt;&lt;/span&gt;" style="ellipse;whiteSpace=wrap;html=1;verticalAlign=middle;horizontal=1;" vertex="1" parent="1">
          <mxGeometry x="-60" y="180" width="80" height="40" as="geometry" />
        </mxCell>
        <mxCell id="Sxat7Bz0VVS-SImOSO3t-16" value="" style="endArrow=none;html=1;rounded=0;entryX=1;entryY=0.5;entryDx=0;entryDy=0;exitX=0;exitY=0.25;exitDx=0;exitDy=0;" edge="1" parent="1" source="Sxat7Bz0VVS-SImOSO3t-1" target="Sxat7Bz0VVS-SImOSO3t-21">
          <mxGeometry width="50" height="50" relative="1" as="geometry">
            <mxPoint x="30" y="200" as="sourcePoint" />
            <mxPoint x="60" y="140" as="targetPoint" />
          </mxGeometry>
        </mxCell>
        <mxCell id="Sxat7Bz0VVS-SImOSO3t-18" value="" style="endArrow=none;html=1;rounded=0;entryX=1;entryY=0.5;entryDx=0;entryDy=0;exitX=0;exitY=1;exitDx=0;exitDy=0;" edge="1" parent="1" source="Sxat7Bz0VVS-SImOSO3t-1" target="Sxat7Bz0VVS-SImOSO3t-9">
          <mxGeometry width="50" height="50" relative="1" as="geometry">
            <mxPoint x="110" y="300" as="sourcePoint" />
            <mxPoint x="160" y="250" as="targetPoint" />
          </mxGeometry>
        </mxCell>
        <mxCell id="Sxat7Bz0VVS-SImOSO3t-19" value="" style="endArrow=none;html=1;rounded=0;entryX=1;entryY=0.5;entryDx=0;entryDy=0;exitX=0;exitY=0.75;exitDx=0;exitDy=0;" edge="1" parent="1" source="Sxat7Bz0VVS-SImOSO3t-1" target="Sxat7Bz0VVS-SImOSO3t-11">
          <mxGeometry width="50" height="50" relative="1" as="geometry">
            <mxPoint x="90" y="210" as="sourcePoint" />
            <mxPoint x="140" y="160" as="targetPoint" />
          </mxGeometry>
        </mxCell>
        <mxCell id="Sxat7Bz0VVS-SImOSO3t-20" value="" style="endArrow=none;html=1;rounded=0;entryX=0;entryY=0.5;entryDx=0;entryDy=0;exitX=1;exitY=0.5;exitDx=0;exitDy=0;" edge="1" parent="1" source="Sxat7Bz0VVS-SImOSO3t-12" target="Sxat7Bz0VVS-SImOSO3t-1">
          <mxGeometry width="50" height="50" relative="1" as="geometry">
            <mxPoint x="-20" y="290" as="sourcePoint" />
            <mxPoint x="30" y="240" as="targetPoint" />
          </mxGeometry>
        </mxCell>
        <mxCell id="Sxat7Bz0VVS-SImOSO3t-21" value="&lt;span style=&quot;font-size: 8px;&quot;&gt;&lt;b&gt;CRM&lt;/b&gt;&lt;/span&gt;" style="ellipse;whiteSpace=wrap;html=1;verticalAlign=middle;horizontal=1;" vertex="1" parent="1">
          <mxGeometry x="-60" y="120" width="80" height="40" as="geometry" />
        </mxCell>
        <mxCell id="Sxat7Bz0VVS-SImOSO3t-22" value="" style="endArrow=none;html=1;rounded=0;entryX=1;entryY=0.5;entryDx=0;entryDy=0;exitX=0;exitY=0;exitDx=0;exitDy=0;" edge="1" parent="1" source="Sxat7Bz0VVS-SImOSO3t-1" target="Sxat7Bz0VVS-SImOSO3t-8">
          <mxGeometry width="50" height="50" relative="1" as="geometry">
            <mxPoint x="80" y="140" as="sourcePoint" />
            <mxPoint x="130" y="90" as="targetPoint" />
          </mxGeometry>
        </mxCell>
        <mxCell id="Sxat7Bz0VVS-SImOSO3t-24" value="&lt;span style=&quot;font-size: 8px;&quot;&gt;&lt;b&gt;Rua&lt;/b&gt;&lt;/span&gt;" style="ellipse;whiteSpace=wrap;html=1;verticalAlign=middle;horizontal=1;" vertex="1" parent="1">
          <mxGeometry x="-150" y="185" width="60" height="30" as="geometry" />
        </mxCell>
        <mxCell id="Sxat7Bz0VVS-SImOSO3t-25" value="&lt;span style=&quot;font-size: 8px;&quot;&gt;&lt;b&gt;Número&lt;/b&gt;&lt;/span&gt;" style="ellipse;whiteSpace=wrap;html=1;verticalAlign=middle;horizontal=1;" vertex="1" parent="1">
          <mxGeometry x="-150" y="225" width="60" height="30" as="geometry" />
        </mxCell>
        <mxCell id="Sxat7Bz0VVS-SImOSO3t-26" value="&lt;span style=&quot;font-size: 8px;&quot;&gt;&lt;b&gt;Complemento&lt;/b&gt;&lt;/span&gt;" style="ellipse;whiteSpace=wrap;html=1;verticalAlign=middle;horizontal=1;" vertex="1" parent="1">
          <mxGeometry x="-150" y="265" width="60" height="30" as="geometry" />
        </mxCell>
        <mxCell id="Sxat7Bz0VVS-SImOSO3t-27" value="&lt;span style=&quot;font-size: 8px;&quot;&gt;&lt;b&gt;Bairro&lt;/b&gt;&lt;/span&gt;" style="ellipse;whiteSpace=wrap;html=1;verticalAlign=middle;horizontal=1;" vertex="1" parent="1">
          <mxGeometry x="-150" y="145" width="60" height="30" as="geometry" />
        </mxCell>
        <mxCell id="Sxat7Bz0VVS-SImOSO3t-28" value="&lt;span style=&quot;font-size: 8px;&quot;&gt;&lt;b&gt;CEP&lt;/b&gt;&lt;/span&gt;" style="ellipse;whiteSpace=wrap;html=1;verticalAlign=middle;horizontal=1;" vertex="1" parent="1">
          <mxGeometry x="-150" y="305" width="60" height="30" as="geometry" />
        </mxCell>
        <mxCell id="Sxat7Bz0VVS-SImOSO3t-29" value="&lt;span style=&quot;font-size: 8px;&quot;&gt;&lt;b&gt;Cidade&lt;/b&gt;&lt;/span&gt;" style="ellipse;whiteSpace=wrap;html=1;verticalAlign=middle;horizontal=1;" vertex="1" parent="1">
          <mxGeometry x="-150" y="105" width="60" height="30" as="geometry" />
        </mxCell>
        <mxCell id="Sxat7Bz0VVS-SImOSO3t-30" value="&lt;span style=&quot;font-size: 8px;&quot;&gt;&lt;b&gt;Estado&lt;/b&gt;&lt;/span&gt;" style="ellipse;whiteSpace=wrap;html=1;verticalAlign=middle;horizontal=1;" vertex="1" parent="1">
          <mxGeometry x="-150" y="65" width="60" height="30" as="geometry" />
        </mxCell>
        <mxCell id="Sxat7Bz0VVS-SImOSO3t-31" value="" style="endArrow=none;html=1;rounded=0;exitX=1;exitY=0.5;exitDx=0;exitDy=0;" edge="1" parent="1" source="Sxat7Bz0VVS-SImOSO3t-30">
          <mxGeometry width="50" height="50" relative="1" as="geometry">
            <mxPoint x="-70" y="90" as="sourcePoint" />
            <mxPoint x="-60" y="200" as="targetPoint" />
          </mxGeometry>
        </mxCell>
        <mxCell id="Sxat7Bz0VVS-SImOSO3t-32" value="" style="endArrow=none;html=1;rounded=0;entryX=1;entryY=0.5;entryDx=0;entryDy=0;" edge="1" parent="1" target="Sxat7Bz0VVS-SImOSO3t-29">
          <mxGeometry width="50" height="50" relative="1" as="geometry">
            <mxPoint x="-60" y="200" as="sourcePoint" />
            <mxPoint x="-170" y="170" as="targetPoint" />
          </mxGeometry>
        </mxCell>
        <mxCell id="Sxat7Bz0VVS-SImOSO3t-34" value="" style="endArrow=none;html=1;rounded=0;exitX=1;exitY=0.5;exitDx=0;exitDy=0;" edge="1" parent="1" source="Sxat7Bz0VVS-SImOSO3t-27">
          <mxGeometry width="50" height="50" relative="1" as="geometry">
            <mxPoint x="-90" y="190" as="sourcePoint" />
            <mxPoint x="-60" y="200" as="targetPoint" />
          </mxGeometry>
        </mxCell>
        <mxCell id="Sxat7Bz0VVS-SImOSO3t-35" value="" style="endArrow=none;html=1;rounded=0;exitX=1;exitY=0.5;exitDx=0;exitDy=0;" edge="1" parent="1" source="Sxat7Bz0VVS-SImOSO3t-24">
          <mxGeometry width="50" height="50" relative="1" as="geometry">
            <mxPoint x="-90" y="190" as="sourcePoint" />
            <mxPoint x="-60" y="200" as="targetPoint" />
          </mxGeometry>
        </mxCell>
        <mxCell id="Sxat7Bz0VVS-SImOSO3t-36" value="" style="endArrow=none;html=1;rounded=0;entryX=1;entryY=0.5;entryDx=0;entryDy=0;" edge="1" parent="1" target="Sxat7Bz0VVS-SImOSO3t-25">
          <mxGeometry width="50" height="50" relative="1" as="geometry">
            <mxPoint x="-60" y="200" as="sourcePoint" />
            <mxPoint x="-180" y="180" as="targetPoint" />
          </mxGeometry>
        </mxCell>
        <mxCell id="Sxat7Bz0VVS-SImOSO3t-37" value="" style="endArrow=none;html=1;rounded=0;entryX=1;entryY=0.5;entryDx=0;entryDy=0;" edge="1" parent="1" target="Sxat7Bz0VVS-SImOSO3t-26">
          <mxGeometry width="50" height="50" relative="1" as="geometry">
            <mxPoint x="-60" y="200" as="sourcePoint" />
            <mxPoint x="-170" y="210" as="targetPoint" />
          </mxGeometry>
        </mxCell>
        <mxCell id="Sxat7Bz0VVS-SImOSO3t-38" value="" style="endArrow=none;html=1;rounded=0;entryX=1;entryY=0.5;entryDx=0;entryDy=0;exitX=0;exitY=0.5;exitDx=0;exitDy=0;" edge="1" parent="1" source="Sxat7Bz0VVS-SImOSO3t-12" target="Sxat7Bz0VVS-SImOSO3t-28">
          <mxGeometry width="50" height="50" relative="1" as="geometry">
            <mxPoint x="-70" y="200" as="sourcePoint" />
            <mxPoint x="-180" y="220" as="targetPoint" />
          </mxGeometry>
        </mxCell>
        <mxCell id="Sxat7Bz0VVS-SImOSO3t-40" value="&lt;font style=&quot;font-size: 10px;&quot;&gt;Pode possuir&lt;/font&gt;" style="rhombus;whiteSpace=wrap;html=1;" vertex="1" parent="1">
          <mxGeometry x="580" y="-40" width="80" height="80" as="geometry" />
        </mxCell>
        <mxCell id="Sxat7Bz0VVS-SImOSO3t-41" value="Realizar" style="rhombus;whiteSpace=wrap;html=1;" vertex="1" parent="1">
          <mxGeometry x="100" y="360" width="80" height="80" as="geometry" />
        </mxCell>
        <mxCell id="Sxat7Bz0VVS-SImOSO3t-42" value="&lt;font style=&quot;font-size: 10px;&quot;&gt;Pode atender&lt;/font&gt;" style="rhombus;whiteSpace=wrap;html=1;" vertex="1" parent="1">
          <mxGeometry x="100" y="-40" width="80" height="80" as="geometry" />
        </mxCell>
        <mxCell id="Sxat7Bz0VVS-SImOSO3t-44" value="&lt;span style=&quot;font-size: 8px;&quot;&gt;&lt;b&gt;Data&lt;/b&gt;&lt;/span&gt;" style="ellipse;whiteSpace=wrap;html=1;verticalAlign=middle;horizontal=1;" vertex="1" parent="1">
          <mxGeometry x="390" y="490" width="50" height="30" as="geometry" />
        </mxCell>
        <mxCell id="Sxat7Bz0VVS-SImOSO3t-45" value="&lt;span style=&quot;font-size: 8px;&quot;&gt;&lt;b&gt;ID&lt;/b&gt;&lt;/span&gt;" style="ellipse;whiteSpace=wrap;html=1;verticalAlign=middle;horizontal=1;" vertex="1" parent="1">
          <mxGeometry x="355" y="450" width="50" height="30" as="geometry" />
        </mxCell>
        <mxCell id="Sxat7Bz0VVS-SImOSO3t-46" value="&lt;span style=&quot;font-size: 8px;&quot;&gt;&lt;b&gt;Horário&lt;/b&gt;&lt;/span&gt;" style="ellipse;whiteSpace=wrap;html=1;verticalAlign=middle;horizontal=1;" vertex="1" parent="1">
          <mxGeometry x="320" y="490" width="50" height="30" as="geometry" />
        </mxCell>
        <mxCell id="Sxat7Bz0VVS-SImOSO3t-47" value="" style="endArrow=none;html=1;rounded=0;exitX=0.548;exitY=-0.013;exitDx=0;exitDy=0;exitPerimeter=0;entryX=0.75;entryY=1;entryDx=0;entryDy=0;" edge="1" parent="1" source="Sxat7Bz0VVS-SImOSO3t-44" target="Sxat7Bz0VVS-SImOSO3t-2">
          <mxGeometry width="50" height="50" relative="1" as="geometry">
            <mxPoint x="420" y="510" as="sourcePoint" />
            <mxPoint x="470" y="460" as="targetPoint" />
          </mxGeometry>
        </mxCell>
        <mxCell id="Sxat7Bz0VVS-SImOSO3t-48" value="" style="endArrow=none;html=1;rounded=0;exitX=0.5;exitY=0;exitDx=0;exitDy=0;entryX=0.25;entryY=1;entryDx=0;entryDy=0;" edge="1" parent="1" source="Sxat7Bz0VVS-SImOSO3t-46" target="Sxat7Bz0VVS-SImOSO3t-2">
          <mxGeometry width="50" height="50" relative="1" as="geometry">
            <mxPoint x="320" y="510" as="sourcePoint" />
            <mxPoint x="370" y="460" as="targetPoint" />
          </mxGeometry>
        </mxCell>
        <mxCell id="Sxat7Bz0VVS-SImOSO3t-49" value="" style="endArrow=none;html=1;rounded=0;entryX=0.5;entryY=0;entryDx=0;entryDy=0;exitX=0.5;exitY=1;exitDx=0;exitDy=0;" edge="1" parent="1" source="Sxat7Bz0VVS-SImOSO3t-2" target="Sxat7Bz0VVS-SImOSO3t-45">
          <mxGeometry width="50" height="50" relative="1" as="geometry">
            <mxPoint x="340" y="600" as="sourcePoint" />
            <mxPoint x="390" y="550" as="targetPoint" />
          </mxGeometry>
        </mxCell>
        <mxCell id="Sxat7Bz0VVS-SImOSO3t-50" value="&lt;span style=&quot;font-size: 8px;&quot;&gt;&lt;b&gt;ID&lt;/b&gt;&lt;/span&gt;" style="ellipse;whiteSpace=wrap;html=1;verticalAlign=middle;horizontal=1;" vertex="1" parent="1">
          <mxGeometry x="355" y="-80" width="50" height="30" as="geometry" />
        </mxCell>
        <mxCell id="Sxat7Bz0VVS-SImOSO3t-51" value="&lt;span style=&quot;font-size: 8px;&quot;&gt;&lt;b&gt;Empresa&lt;/b&gt;&lt;/span&gt;" style="ellipse;whiteSpace=wrap;html=1;verticalAlign=middle;horizontal=1;" vertex="1" parent="1">
          <mxGeometry x="420" y="-80" width="50" height="30" as="geometry" />
        </mxCell>
        <mxCell id="Sxat7Bz0VVS-SImOSO3t-52" value="&lt;span style=&quot;font-size: 8px;&quot;&gt;&lt;b&gt;Tipo&lt;/b&gt;&lt;/span&gt;" style="ellipse;whiteSpace=wrap;html=1;verticalAlign=middle;horizontal=1;" vertex="1" parent="1">
          <mxGeometry x="290" y="-80" width="50" height="30" as="geometry" />
        </mxCell>
        <mxCell id="Sxat7Bz0VVS-SImOSO3t-53" value="&lt;span style=&quot;font-size: 8px;&quot;&gt;&lt;b style=&quot;font-size: 7px;&quot;&gt;Vencimento&lt;/b&gt;&lt;/span&gt;" style="ellipse;whiteSpace=wrap;html=1;verticalAlign=middle;horizontal=1;" vertex="1" parent="1">
          <mxGeometry x="389" y="-130" width="50" height="30" as="geometry" />
        </mxCell>
        <mxCell id="Sxat7Bz0VVS-SImOSO3t-54" value="&lt;div style=&quot;font-size: 6px; line-height: 120%;&quot;&gt;&lt;b style=&quot;background-color: initial; font-size: 6px;&quot;&gt;&lt;font style=&quot;font-size: 6px;&quot;&gt;Percentual&lt;/font&gt;&lt;/b&gt;&lt;/div&gt;&lt;div style=&quot;line-height: 120%; font-size: 6px;&quot;&gt;&lt;span style=&quot;font-size: 6px;&quot;&gt;&lt;b style=&quot;font-size: 6px;&quot;&gt;coparticipação&lt;/b&gt;&lt;/span&gt;&lt;/div&gt;" style="ellipse;whiteSpace=wrap;html=1;verticalAlign=top;horizontal=1;align=center;fontSize=6;" vertex="1" parent="1">
          <mxGeometry x="320" y="-130" width="50" height="30" as="geometry" />
        </mxCell>
        <mxCell id="Sxat7Bz0VVS-SImOSO3t-55" value="" style="endArrow=none;html=1;rounded=0;entryX=0.5;entryY=1;entryDx=0;entryDy=0;exitX=0.25;exitY=0;exitDx=0;exitDy=0;" edge="1" parent="1" source="Sxat7Bz0VVS-SImOSO3t-4" target="Sxat7Bz0VVS-SImOSO3t-54">
          <mxGeometry width="50" height="50" relative="1" as="geometry">
            <mxPoint x="340" y="-40" as="sourcePoint" />
            <mxPoint x="390" y="-90" as="targetPoint" />
          </mxGeometry>
        </mxCell>
        <mxCell id="Sxat7Bz0VVS-SImOSO3t-56" value="" style="endArrow=none;html=1;rounded=0;entryX=0.5;entryY=1;entryDx=0;entryDy=0;exitX=0;exitY=0;exitDx=0;exitDy=0;" edge="1" parent="1" source="Sxat7Bz0VVS-SImOSO3t-4" target="Sxat7Bz0VVS-SImOSO3t-52">
          <mxGeometry width="50" height="50" relative="1" as="geometry">
            <mxPoint x="270" y="20" as="sourcePoint" />
            <mxPoint x="320" y="-30" as="targetPoint" />
          </mxGeometry>
        </mxCell>
        <mxCell id="Sxat7Bz0VVS-SImOSO3t-57" value="" style="endArrow=none;html=1;rounded=0;entryX=0.5;entryY=1;entryDx=0;entryDy=0;exitX=1;exitY=0;exitDx=0;exitDy=0;" edge="1" parent="1" source="Sxat7Bz0VVS-SImOSO3t-4" target="Sxat7Bz0VVS-SImOSO3t-51">
          <mxGeometry width="50" height="50" relative="1" as="geometry">
            <mxPoint x="360" y="20" as="sourcePoint" />
            <mxPoint x="410" y="-30" as="targetPoint" />
          </mxGeometry>
        </mxCell>
        <mxCell id="Sxat7Bz0VVS-SImOSO3t-58" value="" style="endArrow=none;html=1;rounded=0;entryX=0.5;entryY=1;entryDx=0;entryDy=0;exitX=0.5;exitY=0;exitDx=0;exitDy=0;" edge="1" parent="1" source="Sxat7Bz0VVS-SImOSO3t-4" target="Sxat7Bz0VVS-SImOSO3t-50">
          <mxGeometry width="50" height="50" relative="1" as="geometry">
            <mxPoint x="290" y="20" as="sourcePoint" />
            <mxPoint x="340" y="-30" as="targetPoint" />
          </mxGeometry>
        </mxCell>
        <mxCell id="Sxat7Bz0VVS-SImOSO3t-59" value="" style="endArrow=none;html=1;rounded=0;entryX=0.5;entryY=1;entryDx=0;entryDy=0;exitX=0.75;exitY=0;exitDx=0;exitDy=0;" edge="1" parent="1" source="Sxat7Bz0VVS-SImOSO3t-4" target="Sxat7Bz0VVS-SImOSO3t-53">
          <mxGeometry width="50" height="50" relative="1" as="geometry">
            <mxPoint x="290" y="20" as="sourcePoint" />
            <mxPoint x="340" y="-30" as="targetPoint" />
          </mxGeometry>
        </mxCell>
        <mxCell id="Sxat7Bz0VVS-SImOSO3t-60" value="&lt;span style=&quot;font-size: 8px;&quot;&gt;&lt;b&gt;ID&lt;/b&gt;&lt;/span&gt;" style="ellipse;whiteSpace=wrap;html=1;verticalAlign=middle;horizontal=1;" vertex="1" parent="1">
          <mxGeometry x="710" y="160" width="50" height="30" as="geometry" />
        </mxCell>
        <mxCell id="Sxat7Bz0VVS-SImOSO3t-61" value="&lt;span style=&quot;font-size: 8px;&quot;&gt;&lt;b&gt;Nome&lt;/b&gt;&lt;/span&gt;" style="ellipse;whiteSpace=wrap;html=1;verticalAlign=middle;horizontal=1;" vertex="1" parent="1">
          <mxGeometry x="710" y="250" width="50" height="30" as="geometry" />
        </mxCell>
        <mxCell id="Sxat7Bz0VVS-SImOSO3t-62" value="&lt;span style=&quot;font-size: 8px;&quot;&gt;&lt;b&gt;Telefone&lt;/b&gt;&lt;/span&gt;" style="ellipse;whiteSpace=wrap;html=1;verticalAlign=middle;horizontal=1;" vertex="1" parent="1">
          <mxGeometry x="710" y="120" width="50" height="30" as="geometry" />
        </mxCell>
        <mxCell id="Sxat7Bz0VVS-SImOSO3t-63" value="&lt;span style=&quot;font-size: 8px;&quot;&gt;&lt;b&gt;Endereço&lt;/b&gt;&lt;/span&gt;" style="ellipse;whiteSpace=wrap;html=1;verticalAlign=middle;horizontal=1;" vertex="1" parent="1">
          <mxGeometry x="710" y="210" width="50" height="30" as="geometry" />
        </mxCell>
        <mxCell id="Sxat7Bz0VVS-SImOSO3t-72" value="" style="group" vertex="1" connectable="0" parent="1">
          <mxGeometry x="827" y="90" width="50" height="270" as="geometry" />
        </mxCell>
        <mxCell id="Sxat7Bz0VVS-SImOSO3t-65" value="&lt;span style=&quot;font-size: 8px;&quot;&gt;&lt;b&gt;Estado&lt;/b&gt;&lt;/span&gt;" style="ellipse;whiteSpace=wrap;html=1;verticalAlign=middle;horizontal=1;" vertex="1" parent="Sxat7Bz0VVS-SImOSO3t-72">
          <mxGeometry width="50" height="30" as="geometry" />
        </mxCell>
        <mxCell id="Sxat7Bz0VVS-SImOSO3t-66" value="&lt;span style=&quot;font-size: 8px;&quot;&gt;&lt;b&gt;Cidade&lt;/b&gt;&lt;/span&gt;" style="ellipse;whiteSpace=wrap;html=1;verticalAlign=middle;horizontal=1;" vertex="1" parent="Sxat7Bz0VVS-SImOSO3t-72">
          <mxGeometry y="40" width="50" height="30" as="geometry" />
        </mxCell>
        <mxCell id="Sxat7Bz0VVS-SImOSO3t-67" value="&lt;span style=&quot;font-size: 8px;&quot;&gt;&lt;b&gt;Bairro&lt;/b&gt;&lt;/span&gt;" style="ellipse;whiteSpace=wrap;html=1;verticalAlign=middle;horizontal=1;" vertex="1" parent="Sxat7Bz0VVS-SImOSO3t-72">
          <mxGeometry y="80" width="50" height="30" as="geometry" />
        </mxCell>
        <mxCell id="Sxat7Bz0VVS-SImOSO3t-68" value="&lt;span style=&quot;font-size: 8px;&quot;&gt;&lt;b&gt;Rua&lt;/b&gt;&lt;/span&gt;" style="ellipse;whiteSpace=wrap;html=1;verticalAlign=middle;horizontal=1;" vertex="1" parent="Sxat7Bz0VVS-SImOSO3t-72">
          <mxGeometry y="120" width="50" height="30" as="geometry" />
        </mxCell>
        <mxCell id="Sxat7Bz0VVS-SImOSO3t-69" value="&lt;b style=&quot;&quot;&gt;&lt;font style=&quot;font-size: 6px;&quot;&gt;Complemento&lt;/font&gt;&lt;/b&gt;" style="ellipse;whiteSpace=wrap;html=1;verticalAlign=middle;horizontal=1;" vertex="1" parent="Sxat7Bz0VVS-SImOSO3t-72">
          <mxGeometry y="200" width="50" height="30" as="geometry" />
        </mxCell>
        <mxCell id="Sxat7Bz0VVS-SImOSO3t-70" value="&lt;span style=&quot;font-size: 8px;&quot;&gt;&lt;b&gt;Número&lt;/b&gt;&lt;/span&gt;" style="ellipse;whiteSpace=wrap;html=1;verticalAlign=middle;horizontal=1;" vertex="1" parent="Sxat7Bz0VVS-SImOSO3t-72">
          <mxGeometry y="160" width="50" height="30" as="geometry" />
        </mxCell>
        <mxCell id="Sxat7Bz0VVS-SImOSO3t-71" value="&lt;span style=&quot;font-size: 8px;&quot;&gt;&lt;b&gt;CEP&lt;/b&gt;&lt;/span&gt;" style="ellipse;whiteSpace=wrap;html=1;verticalAlign=middle;horizontal=1;" vertex="1" parent="Sxat7Bz0VVS-SImOSO3t-72">
          <mxGeometry y="240" width="50" height="30" as="geometry" />
        </mxCell>
        <mxCell id="Sxat7Bz0VVS-SImOSO3t-73" value="" style="endArrow=none;html=1;rounded=0;entryX=0;entryY=0.5;entryDx=0;entryDy=0;exitX=1;exitY=0.5;exitDx=0;exitDy=0;" edge="1" parent="1" source="Sxat7Bz0VVS-SImOSO3t-63" target="Sxat7Bz0VVS-SImOSO3t-68">
          <mxGeometry width="50" height="50" relative="1" as="geometry">
            <mxPoint x="750" y="300" as="sourcePoint" />
            <mxPoint x="800" y="250" as="targetPoint" />
          </mxGeometry>
        </mxCell>
        <mxCell id="Sxat7Bz0VVS-SImOSO3t-75" value="" style="endArrow=none;html=1;rounded=0;entryX=0;entryY=0.5;entryDx=0;entryDy=0;exitX=1;exitY=1;exitDx=0;exitDy=0;" edge="1" parent="1" source="Sxat7Bz0VVS-SImOSO3t-63" target="Sxat7Bz0VVS-SImOSO3t-71">
          <mxGeometry width="50" height="50" relative="1" as="geometry">
            <mxPoint x="710" y="350" as="sourcePoint" />
            <mxPoint x="760" y="300" as="targetPoint" />
          </mxGeometry>
        </mxCell>
        <mxCell id="Sxat7Bz0VVS-SImOSO3t-76" value="" style="endArrow=none;html=1;rounded=0;entryX=0;entryY=0.5;entryDx=0;entryDy=0;exitX=1;exitY=1;exitDx=0;exitDy=0;" edge="1" parent="1" source="Sxat7Bz0VVS-SImOSO3t-63" target="Sxat7Bz0VVS-SImOSO3t-69">
          <mxGeometry width="50" height="50" relative="1" as="geometry">
            <mxPoint x="740" y="350" as="sourcePoint" />
            <mxPoint x="790" y="300" as="targetPoint" />
          </mxGeometry>
        </mxCell>
        <mxCell id="Sxat7Bz0VVS-SImOSO3t-77" value="" style="endArrow=none;html=1;rounded=0;exitX=1;exitY=0;exitDx=0;exitDy=0;entryX=0.009;entryY=0.651;entryDx=0;entryDy=0;entryPerimeter=0;" edge="1" parent="1" source="Sxat7Bz0VVS-SImOSO3t-63" target="Sxat7Bz0VVS-SImOSO3t-67">
          <mxGeometry width="50" height="50" relative="1" as="geometry">
            <mxPoint x="630" y="320" as="sourcePoint" />
            <mxPoint x="830" y="160" as="targetPoint" />
          </mxGeometry>
        </mxCell>
        <mxCell id="Sxat7Bz0VVS-SImOSO3t-78" value="" style="endArrow=none;html=1;rounded=0;entryX=0;entryY=0.5;entryDx=0;entryDy=0;exitX=1;exitY=1;exitDx=0;exitDy=0;" edge="1" parent="1" source="Sxat7Bz0VVS-SImOSO3t-63" target="Sxat7Bz0VVS-SImOSO3t-70">
          <mxGeometry width="50" height="50" relative="1" as="geometry">
            <mxPoint x="740" y="310" as="sourcePoint" />
            <mxPoint x="790" y="260" as="targetPoint" />
          </mxGeometry>
        </mxCell>
        <mxCell id="Sxat7Bz0VVS-SImOSO3t-79" value="" style="endArrow=none;html=1;rounded=0;entryX=0;entryY=0.5;entryDx=0;entryDy=0;exitX=1;exitY=0;exitDx=0;exitDy=0;" edge="1" parent="1" source="Sxat7Bz0VVS-SImOSO3t-63" target="Sxat7Bz0VVS-SImOSO3t-66">
          <mxGeometry width="50" height="50" relative="1" as="geometry">
            <mxPoint x="770" y="150" as="sourcePoint" />
            <mxPoint x="730" y="280" as="targetPoint" />
          </mxGeometry>
        </mxCell>
        <mxCell id="Sxat7Bz0VVS-SImOSO3t-80" value="" style="endArrow=none;html=1;rounded=0;entryX=1;entryY=0;entryDx=0;entryDy=0;exitX=0;exitY=0.5;exitDx=0;exitDy=0;" edge="1" parent="1" source="Sxat7Bz0VVS-SImOSO3t-65" target="Sxat7Bz0VVS-SImOSO3t-63">
          <mxGeometry width="50" height="50" relative="1" as="geometry">
            <mxPoint x="640" y="320" as="sourcePoint" />
            <mxPoint x="690" y="270" as="targetPoint" />
          </mxGeometry>
        </mxCell>
        <mxCell id="Sxat7Bz0VVS-SImOSO3t-81" value="" style="endArrow=none;html=1;rounded=0;entryX=0;entryY=0.5;entryDx=0;entryDy=0;exitX=1;exitY=1;exitDx=0;exitDy=0;" edge="1" parent="1" source="Sxat7Bz0VVS-SImOSO3t-3" target="Sxat7Bz0VVS-SImOSO3t-61">
          <mxGeometry width="50" height="50" relative="1" as="geometry">
            <mxPoint x="610" y="320" as="sourcePoint" />
            <mxPoint x="660" y="270" as="targetPoint" />
          </mxGeometry>
        </mxCell>
        <mxCell id="Sxat7Bz0VVS-SImOSO3t-82" value="" style="endArrow=none;html=1;rounded=0;entryX=0;entryY=0.5;entryDx=0;entryDy=0;exitX=1;exitY=0.75;exitDx=0;exitDy=0;" edge="1" parent="1" source="Sxat7Bz0VVS-SImOSO3t-3" target="Sxat7Bz0VVS-SImOSO3t-63">
          <mxGeometry width="50" height="50" relative="1" as="geometry">
            <mxPoint x="630" y="350" as="sourcePoint" />
            <mxPoint x="680" y="300" as="targetPoint" />
          </mxGeometry>
        </mxCell>
        <mxCell id="Sxat7Bz0VVS-SImOSO3t-83" value="" style="endArrow=none;html=1;rounded=0;entryX=0;entryY=0.5;entryDx=0;entryDy=0;exitX=1;exitY=0;exitDx=0;exitDy=0;" edge="1" parent="1" source="Sxat7Bz0VVS-SImOSO3t-3" target="Sxat7Bz0VVS-SImOSO3t-62">
          <mxGeometry width="50" height="50" relative="1" as="geometry">
            <mxPoint x="670" y="390" as="sourcePoint" />
            <mxPoint x="720" y="340" as="targetPoint" />
          </mxGeometry>
        </mxCell>
        <mxCell id="Sxat7Bz0VVS-SImOSO3t-84" value="" style="endArrow=none;html=1;rounded=0;entryX=0;entryY=0.5;entryDx=0;entryDy=0;exitX=1;exitY=0.25;exitDx=0;exitDy=0;" edge="1" parent="1" source="Sxat7Bz0VVS-SImOSO3t-3" target="Sxat7Bz0VVS-SImOSO3t-60">
          <mxGeometry width="50" height="50" relative="1" as="geometry">
            <mxPoint x="640" y="370" as="sourcePoint" />
            <mxPoint x="690" y="320" as="targetPoint" />
          </mxGeometry>
        </mxCell>
        <mxCell id="Sxat7Bz0VVS-SImOSO3t-103" value="" style="endArrow=none;html=1;rounded=0;entryX=0.5;entryY=0;entryDx=0;entryDy=0;exitX=0.5;exitY=1;exitDx=0;exitDy=0;" edge="1" parent="1" source="Sxat7Bz0VVS-SImOSO3t-1" target="Sxat7Bz0VVS-SImOSO3t-41">
          <mxGeometry relative="1" as="geometry">
            <mxPoint x="140" y="260" as="sourcePoint" />
            <mxPoint x="360" y="290" as="targetPoint" />
          </mxGeometry>
        </mxCell>
        <mxCell id="Sxat7Bz0VVS-SImOSO3t-104" value="1" style="resizable=0;html=1;whiteSpace=wrap;align=left;verticalAlign=bottom;" connectable="0" vertex="1" parent="Sxat7Bz0VVS-SImOSO3t-103">
          <mxGeometry x="-1" relative="1" as="geometry" />
        </mxCell>
        <mxCell id="Sxat7Bz0VVS-SImOSO3t-105" value="N" style="resizable=0;html=1;whiteSpace=wrap;align=right;verticalAlign=bottom;" connectable="0" vertex="1" parent="Sxat7Bz0VVS-SImOSO3t-103">
          <mxGeometry x="1" relative="1" as="geometry" />
        </mxCell>
        <mxCell id="Sxat7Bz0VVS-SImOSO3t-106" value="" style="endArrow=none;html=1;rounded=0;entryX=1;entryY=0.5;entryDx=0;entryDy=0;exitX=0;exitY=0.5;exitDx=0;exitDy=0;" edge="1" parent="1" source="Sxat7Bz0VVS-SImOSO3t-2" target="Sxat7Bz0VVS-SImOSO3t-41">
          <mxGeometry relative="1" as="geometry">
            <mxPoint x="280" y="250" as="sourcePoint" />
            <mxPoint x="280" y="370" as="targetPoint" />
          </mxGeometry>
        </mxCell>
        <mxCell id="Sxat7Bz0VVS-SImOSO3t-107" value="1" style="resizable=0;html=1;whiteSpace=wrap;align=left;verticalAlign=bottom;" connectable="0" vertex="1" parent="Sxat7Bz0VVS-SImOSO3t-106">
          <mxGeometry x="-1" relative="1" as="geometry" />
        </mxCell>
        <mxCell id="Sxat7Bz0VVS-SImOSO3t-108" value="N" style="resizable=0;html=1;whiteSpace=wrap;align=right;verticalAlign=bottom;" connectable="0" vertex="1" parent="Sxat7Bz0VVS-SImOSO3t-106">
          <mxGeometry x="1" relative="1" as="geometry" />
        </mxCell>
        <mxCell id="Sxat7Bz0VVS-SImOSO3t-109" value="" style="endArrow=none;html=1;rounded=0;entryX=0.5;entryY=0;entryDx=0;entryDy=0;exitX=0.5;exitY=1;exitDx=0;exitDy=0;" edge="1" parent="1" source="Sxat7Bz0VVS-SImOSO3t-3" target="Sxat7Bz0VVS-SImOSO3t-5">
          <mxGeometry relative="1" as="geometry">
            <mxPoint x="519.5799999999999" y="225" as="sourcePoint" />
            <mxPoint x="519.5799999999999" y="345" as="targetPoint" />
          </mxGeometry>
        </mxCell>
        <mxCell id="Sxat7Bz0VVS-SImOSO3t-110" value="1" style="resizable=0;html=1;whiteSpace=wrap;align=left;verticalAlign=bottom;" connectable="0" vertex="1" parent="Sxat7Bz0VVS-SImOSO3t-109">
          <mxGeometry x="-1" relative="1" as="geometry" />
        </mxCell>
        <mxCell id="Sxat7Bz0VVS-SImOSO3t-111" value="N" style="resizable=0;html=1;whiteSpace=wrap;align=right;verticalAlign=bottom;" connectable="0" vertex="1" parent="Sxat7Bz0VVS-SImOSO3t-109">
          <mxGeometry x="1" relative="1" as="geometry" />
        </mxCell>
        <mxCell id="Sxat7Bz0VVS-SImOSO3t-112" value="" style="endArrow=none;html=1;rounded=0;entryX=0;entryY=0.5;entryDx=0;entryDy=0;exitX=1;exitY=0.5;exitDx=0;exitDy=0;" edge="1" parent="1" source="Sxat7Bz0VVS-SImOSO3t-2" target="Sxat7Bz0VVS-SImOSO3t-5">
          <mxGeometry relative="1" as="geometry">
            <mxPoint x="550" y="280" as="sourcePoint" />
            <mxPoint x="550" y="400" as="targetPoint" />
          </mxGeometry>
        </mxCell>
        <mxCell id="Sxat7Bz0VVS-SImOSO3t-113" value="1" style="resizable=0;html=1;whiteSpace=wrap;align=left;verticalAlign=bottom;" connectable="0" vertex="1" parent="Sxat7Bz0VVS-SImOSO3t-112">
          <mxGeometry x="-1" relative="1" as="geometry" />
        </mxCell>
        <mxCell id="Sxat7Bz0VVS-SImOSO3t-114" value="N" style="resizable=0;html=1;whiteSpace=wrap;align=right;verticalAlign=bottom;" connectable="0" vertex="1" parent="Sxat7Bz0VVS-SImOSO3t-112">
          <mxGeometry x="1" relative="1" as="geometry" />
        </mxCell>
        <mxCell id="Sxat7Bz0VVS-SImOSO3t-115" value="" style="endArrow=none;html=1;rounded=0;entryX=0.5;entryY=1;entryDx=0;entryDy=0;exitX=0.5;exitY=0;exitDx=0;exitDy=0;" edge="1" parent="1" source="Sxat7Bz0VVS-SImOSO3t-3" target="Sxat7Bz0VVS-SImOSO3t-40">
          <mxGeometry relative="1" as="geometry">
            <mxPoint x="460" y="90" as="sourcePoint" />
            <mxPoint x="460" y="210" as="targetPoint" />
          </mxGeometry>
        </mxCell>
        <mxCell id="Sxat7Bz0VVS-SImOSO3t-116" value="1" style="resizable=0;html=1;whiteSpace=wrap;align=left;verticalAlign=bottom;" connectable="0" vertex="1" parent="Sxat7Bz0VVS-SImOSO3t-115">
          <mxGeometry x="-1" relative="1" as="geometry" />
        </mxCell>
        <mxCell id="Sxat7Bz0VVS-SImOSO3t-117" value="N" style="resizable=0;html=1;whiteSpace=wrap;align=right;verticalAlign=bottom;" connectable="0" vertex="1" parent="Sxat7Bz0VVS-SImOSO3t-115">
          <mxGeometry x="1" relative="1" as="geometry" />
        </mxCell>
        <mxCell id="Sxat7Bz0VVS-SImOSO3t-126" value="" style="endArrow=none;html=1;rounded=0;entryX=0;entryY=0.5;entryDx=0;entryDy=0;exitX=1;exitY=0.5;exitDx=0;exitDy=0;" edge="1" parent="1" source="Sxat7Bz0VVS-SImOSO3t-4" target="Sxat7Bz0VVS-SImOSO3t-40">
          <mxGeometry relative="1" as="geometry">
            <mxPoint x="630" y="170" as="sourcePoint" />
            <mxPoint x="630" y="50" as="targetPoint" />
          </mxGeometry>
        </mxCell>
        <mxCell id="Sxat7Bz0VVS-SImOSO3t-127" value="1" style="resizable=0;html=1;whiteSpace=wrap;align=left;verticalAlign=bottom;" connectable="0" vertex="1" parent="Sxat7Bz0VVS-SImOSO3t-126">
          <mxGeometry x="-1" relative="1" as="geometry" />
        </mxCell>
        <mxCell id="Sxat7Bz0VVS-SImOSO3t-128" value="N" style="resizable=0;html=1;whiteSpace=wrap;align=right;verticalAlign=bottom;" connectable="0" vertex="1" parent="Sxat7Bz0VVS-SImOSO3t-126">
          <mxGeometry x="1" relative="1" as="geometry" />
        </mxCell>
        <mxCell id="Sxat7Bz0VVS-SImOSO3t-129" value="" style="endArrow=none;html=1;rounded=0;entryX=0.5;entryY=1;entryDx=0;entryDy=0;exitX=0.5;exitY=0;exitDx=0;exitDy=0;" edge="1" parent="1" source="Sxat7Bz0VVS-SImOSO3t-1" target="Sxat7Bz0VVS-SImOSO3t-42">
          <mxGeometry relative="1" as="geometry">
            <mxPoint x="210" y="50" as="sourcePoint" />
            <mxPoint x="210" y="170" as="targetPoint" />
          </mxGeometry>
        </mxCell>
        <mxCell id="Sxat7Bz0VVS-SImOSO3t-130" value="1" style="resizable=0;html=1;whiteSpace=wrap;align=left;verticalAlign=bottom;" connectable="0" vertex="1" parent="Sxat7Bz0VVS-SImOSO3t-129">
          <mxGeometry x="-1" relative="1" as="geometry" />
        </mxCell>
        <mxCell id="Sxat7Bz0VVS-SImOSO3t-131" value="N" style="resizable=0;html=1;whiteSpace=wrap;align=right;verticalAlign=bottom;" connectable="0" vertex="1" parent="Sxat7Bz0VVS-SImOSO3t-129">
          <mxGeometry x="1" relative="1" as="geometry" />
        </mxCell>
        <mxCell id="Sxat7Bz0VVS-SImOSO3t-132" value="" style="endArrow=none;html=1;rounded=0;entryX=1;entryY=0.5;entryDx=0;entryDy=0;exitX=0;exitY=0.5;exitDx=0;exitDy=0;" edge="1" parent="1" source="Sxat7Bz0VVS-SImOSO3t-4" target="Sxat7Bz0VVS-SImOSO3t-42">
          <mxGeometry relative="1" as="geometry">
            <mxPoint x="240" y="20" as="sourcePoint" />
            <mxPoint x="240" y="140" as="targetPoint" />
          </mxGeometry>
        </mxCell>
        <mxCell id="Sxat7Bz0VVS-SImOSO3t-133" value="1" style="resizable=0;html=1;whiteSpace=wrap;align=left;verticalAlign=bottom;" connectable="0" vertex="1" parent="Sxat7Bz0VVS-SImOSO3t-132">
          <mxGeometry x="-1" relative="1" as="geometry" />
        </mxCell>
        <mxCell id="Sxat7Bz0VVS-SImOSO3t-134" value="N" style="resizable=0;html=1;whiteSpace=wrap;align=right;verticalAlign=bottom;" connectable="0" vertex="1" parent="Sxat7Bz0VVS-SImOSO3t-132">
          <mxGeometry x="1" relative="1" as="geometry" />
        </mxCell>
      </root>
    </mxGraphModel>
  </diagram>
</mxfile>
